<?xml version="1.0" standalone="no"?>
<!DOCTYPE svg PUBLIC "-//W3C//DTD SVG 20010904//EN"
 "http://www.w3.org/TR/2001/REC-SVG-20010904/DTD/svg10.dtd">
<svg version="1.0" xmlns="http://www.w3.org/2000/svg"
 width="100.000000pt" height="100.000000pt" viewBox="0 0 100.000000 100.000000"
 preserveAspectRatio="xMidYMid meet">

<g transform="translate(0.000000,100.000000) scale(0.100000,-0.100000)"
fill="#000000" stroke="none">
<path d="M92 908 c-22 -22 -13 -42 49 -104 l61 -62 -25 -43 c-69 -120 -74
-250 -12 -372 l35 -71 -60 -61 c-61 -61 -70 -81 -48 -103 22 -22 42 -13 103
48 l61 60 73 -37 c70 -36 78 -38 170 -38 91 0 100 2 171 38 l74 37 61 -60 c61
-61 81 -70 103 -48 22 22 13 42 -49 104 l-61 62 25 43 c33 57 57 141 57 199 0
58 -24 142 -57 199 l-25 43 61 62 c62 62 71 82 49 104 -22 22 -42 13 -104 -49
l-62 -61 -43 25 c-57 33 -141 57 -199 57 -58 0 -142 -24 -199 -57 l-43 -25
-62 61 c-62 62 -82 71 -104 49z m542 -142 c105 -51 161 -144 161 -266 0 -85
-21 -142 -74 -203 -82 -92 -237 -121 -353 -64 -160 79 -215 278 -118 430 80
126 246 170 384 103z"/>
</g>
</svg>
