<?xml version="1.0" standalone="no"?>
<!DOCTYPE svg PUBLIC "-//W3C//DTD SVG 20010904//EN"
 "http://www.w3.org/TR/2001/REC-SVG-20010904/DTD/svg10.dtd">
<svg version="1.0" xmlns="http://www.w3.org/2000/svg"
 width="512.000000pt" height="512.000000pt" viewBox="0 0 512.000000 512.000000"
 preserveAspectRatio="xMidYMid meet">

<g transform="translate(0.000000,512.000000) scale(0.100000,-0.100000)"
fill="#000000" stroke="none">
<path d="M944 5109 c-62 -18 -127 -71 -157 -129 -26 -50 -28 -62 -25 -130 6
-100 48 -167 133 -213 40 -22 48 -22 715 -28 635 -6 681 -7 770 -27 244 -53
410 -143 528 -285 46 -55 116 -190 127 -244 l6 -33 -1043 -2 c-1156 -3 -1072
2 -1153 -69 -73 -64 -103 -178 -75 -281 16 -57 91 -133 156 -157 54 -21 70
-21 1074 -21 l1019 0 -16 -37 c-28 -68 -105 -177 -165 -235 -113 -109 -273
-190 -453 -231 -83 -19 -135 -21 -640 -26 l-550 -6 -53 -24 c-125 -56 -186
-210 -131 -331 29 -64 84 -117 146 -140 51 -19 79 -20 490 -20 343 0 458 -3
541 -16 278 -41 458 -168 580 -410 55 -109 98 -254 187 -624 115 -482 195
-770 257 -930 67 -172 169 -330 256 -397 190 -145 475 -15 490 224 5 71 -14
143 -54 203 -70 106 -155 390 -313 1045 -43 182 -94 375 -111 430 -104 322
-278 557 -500 676 -33 17 -60 35 -60 39 0 4 28 19 63 34 209 90 411 256 536
441 61 89 87 139 126 245 l32 85 244 5 c282 6 301 10 374 92 50 55 65 97 65
178 0 70 -33 143 -85 189 -71 62 -87 65 -333 69 -218 4 -222 4 -226 25 -3 12
-10 51 -16 87 -23 133 -99 322 -171 427 -16 23 -29 44 -29 47 0 3 154 6 343 8
328 3 344 4 382 25 85 46 127 113 133 213 3 68 1 80 -25 130 -31 60 -95 111
-161 130 -47 13 -3183 12 -3228 -1z"/>
</g>
</svg>
